<svg xmlns="http://www.w3.org/2000/svg" viewBox="0 0 160 19.79">
  <g fill="#FFFFFF">
    <path d="M27.64 7.33H8.19V0H0v19.79h8.19v-7.51h19.45v7.51h8.35V0h-8.35v7.33zM151.3 0h-31.38v18.93L104.57 0h-12.8l-15 18.59v-3.41H49.81v-2.9h27v-4.6h-27V4.61h27V0H41.62v19.79h43.84L88 16.72h20.47l2.38 3.07h40.45c5.52 0 8.68-4.39 8.7-9.9S156.82.07 151.3 0zM91.6 12.28L95.87 7a2.94 2.94 0 012.38-1.36A2.64 2.64 0 01100.47 7l4.1 5.29zm59.7-3.75v2.73a2.3 2.3 0 01-2.2 2.39h-21V6.31h21a2.14 2.14 0 012.21 2.08z"/>
  </g>
</svg>
